# Blender v2.92.0 OBJ File: ''
# www.blender.org
mtllib block3.mtl
o Cube_Cube.001
v -1.874726 -1.874726 1.874726
v -1.874726 1.874726 1.874726
v -1.874726 -1.874726 -1.874726
v -1.874726 1.874726 -1.874726
v 1.874726 -1.874726 1.874726
v 1.874726 1.874726 1.874726
v 1.874726 -1.874726 -1.874726
v 1.874726 1.874726 -1.874726
v -5.972878 -1.874726 -1.874726
v -5.972878 -1.874726 1.874726
v -5.972878 1.874726 1.874726
v -5.972878 1.874726 -1.874726
v -4.582897 -1.874726 -1.874726
v -4.582897 1.874726 -1.874726
v -4.582897 1.874726 1.874726
v -4.582897 -1.874726 1.874726
v -1.874726 -1.874726 0.000000
v -1.874726 5.143594 0.000000
v 1.874726 -1.874726 0.000000
v 1.874726 5.143594 0.000000
v -5.972878 -1.874726 0.000000
v -5.972878 1.874726 0.000000
v -4.582897 -1.874726 0.000000
v -4.582897 5.143594 0.000000
v -5.972878 11.302814 0.000000
v -5.972878 11.302814 -1.874726
v -4.582897 11.302814 -1.874726
v -4.582897 11.302814 0.000000
v -1.874726 3.509160 -0.937363
v 1.874726 -1.874726 -0.937363
v -5.972878 1.874726 -0.937363
v -4.582897 -1.874726 -0.937363
v -1.874726 -1.874726 -0.937363
v 1.874726 3.509160 -0.937363
v -5.972878 -1.874726 -0.937363
v -4.582897 3.509160 -0.937363
v -5.972878 11.921526 -0.937363
v -4.582897 11.921527 -0.937363
v -5.277887 -1.874726 -1.874726
v -5.277887 1.874726 1.874726
v -5.277887 1.874726 -1.874726
v -5.277887 -1.874726 1.874726
v -5.277887 -1.874726 0.000000
v -5.277887 3.509160 0.000000
v -5.277887 11.422007 -1.874726
v -5.277887 11.422007 0.000000
v -5.277887 13.319047 -0.937363
v -5.277887 -1.874726 -0.937363
vt 0.375000 0.250000
vt 0.625000 0.250000
vt 0.625000 0.250000
vt 0.625000 0.250000
vt 0.375000 0.500000
vt 0.375000 0.250000
vt 0.375000 0.625000
vt 0.625000 0.750000
vt 0.375000 0.750000
vt 0.375000 1.000000
vt 0.125000 0.750000
vt 0.125000 0.625000
vt 0.875000 0.625000
vt 0.625000 0.625000
vt 0.625000 0.187500
vt 0.375000 0.250000
vt 0.375000 0.187500
vt 0.625000 1.000000
vt 0.375000 1.000000
vt 0.375000 1.000000
vt 0.625000 0.125000
vt 0.625000 0.187500
vt 0.125000 0.750000
vt 0.125000 0.625000
vt 0.125000 0.625000
vt 0.125000 0.625000
vt 0.875000 0.562500
vt 0.875000 0.500000
vt 0.875000 0.562500
vt 0.625000 1.000000
vt 0.375000 1.000000
vt 0.625000 0.250000
vt 0.875000 0.750000
vt 0.875000 0.750000
vt 0.125000 0.562500
vt 0.125000 0.562500
vt 0.125000 0.562500
vt 0.125000 0.562500
vt 0.875000 0.750000
vt 0.875000 0.625000
vt 0.875000 0.750000
vt 0.625000 0.000000
vt 0.375000 0.125000
vt 0.375000 0.000000
vt 0.625000 0.562500
vt 0.375000 0.562500
vt 0.875000 0.500000
vt 0.875000 0.562500
vt 0.875000 0.562500
vt 0.625000 0.250000
vt 0.625000 0.250000
vt 0.875000 0.625000
vt 0.875000 0.625000
vt 0.875000 0.625000
vt 0.875000 0.500000
vt 0.875000 0.562500
vt 0.875000 0.625000
vt 0.875000 0.625000
vt 0.625000 0.500000
vt 0.125000 0.500000
vt 0.875000 0.500000
vt 0.125000 0.500000
vt 0.125000 0.500000
vt 0.125000 0.500000
vt 0.625000 0.125000
vt 0.625000 0.250000
vt 0.125000 0.750000
vt 0.625000 1.000000
vt 0.375000 0.250000
vt 0.625000 1.000000
vt 0.125000 0.750000
vt 0.875000 0.500000
vn 0.0000 0.0000 -1.0000
vn 1.0000 0.0000 0.0000
vn 0.0000 0.0000 1.0000
vn 0.0000 -1.0000 0.0000
vn 0.0000 0.4975 0.8675
vn -1.0000 0.0000 0.0000
vn 0.0000 0.4975 -0.8675
vn 0.0000 1.0000 0.0000
vn -0.6652 0.3308 -0.6694
vn -0.1417 0.8262 0.5453
vn 0.1417 0.8262 0.5453
vn 0.6652 0.3308 -0.6694
vn 0.0000 0.7538 0.6571
vn -0.8710 0.3704 0.3229
vn -0.1417 0.8262 -0.5453
vn -0.6652 0.3308 0.6694
vn 0.6652 0.3308 0.6694
vn 0.1417 0.8262 -0.5453
vn -0.7602 0.3232 0.5636
usemtl None
s off
f 39/1/1 12/2/1 41/3/1
f 4/4/1 7/5/1 3/6/1
f 19/7/2 6/8/2 5/9/2
f 6/8/3 1/10/3 5/9/3
f 19/7/4 1/11/4 17/12/4
f 18/13/5 6/8/5 20/14/5
f 31/15/6 9/16/6 35/17/6
f 40/18/3 10/19/3 42/20/3
f 31/15/6 25/21/6 37/22/6
f 42/23/4 21/24/4 43/25/4
f 1/11/4 23/26/4 17/12/4
f 29/27/7 14/28/7 36/29/7
f 2/30/3 16/31/3 1/10/3
f 3/6/1 14/32/1 4/4/1
f 18/13/5 15/33/5 2/34/5
f 17/12/4 32/35/4 33/36/4
f 43/25/4 35/37/4 48/38/4
f 40/39/8 22/40/8 11/41/8
f 11/42/6 21/43/6 10/44/6
f 29/27/7 20/14/7 34/45/7
f 30/46/4 17/12/4 33/36/4
f 34/45/2 19/7/2 30/46/2
f 45/47/9 37/48/9 47/49/9
f 41/3/1 26/50/1 45/51/1
f 24/52/3 46/53/3 44/54/3
f 36/29/2 27/55/2 38/56/2
f 24/52/2 38/56/2 28/57/2
f 46/53/10 37/48/10 25/58/10
f 8/59/2 30/46/2 7/5/2
f 7/5/4 33/36/4 3/60/4
f 4/61/7 34/45/7 8/59/7
f 48/38/4 9/62/4 39/63/4
f 33/36/4 13/64/4 3/60/4
f 18/13/7 36/29/7 24/52/7
f 31/15/6 26/50/6 12/2/6
f 22/65/6 35/17/6 21/43/6
f 32/35/4 39/63/4 13/64/4
f 38/56/11 46/53/11 28/57/11
f 44/54/3 25/58/3 22/40/3
f 41/3/1 27/66/1 14/32/1
f 38/56/12 45/47/12 47/49/12
f 15/33/13 44/54/13 40/39/13
f 23/26/4 48/38/4 32/35/4
f 16/67/4 43/25/4 23/26/4
f 15/68/3 42/20/3 16/31/3
f 13/69/1 41/3/1 14/32/1
f 39/1/1 9/16/1 12/2/1
f 4/4/1 8/59/1 7/5/1
f 19/7/2 20/14/2 6/8/2
f 6/8/3 2/30/3 1/10/3
f 19/7/4 5/9/4 1/11/4
f 18/13/5 2/34/5 6/8/5
f 31/15/6 12/2/6 9/16/6
f 40/18/3 11/70/3 10/19/3
f 31/15/6 22/65/6 25/21/6
f 42/23/4 10/71/4 21/24/4
f 1/11/4 16/67/4 23/26/4
f 29/27/7 4/61/7 14/28/7
f 2/30/3 15/68/3 16/31/3
f 3/6/1 13/69/1 14/32/1
f 18/13/5 24/52/5 15/33/5
f 17/12/4 23/26/4 32/35/4
f 43/25/4 21/24/4 35/37/4
f 40/39/14 44/54/14 22/40/14
f 11/42/6 22/65/6 21/43/6
f 29/27/7 18/13/7 20/14/7
f 30/46/4 19/7/4 17/12/4
f 34/45/2 20/14/2 19/7/2
f 45/47/15 26/72/15 37/48/15
f 41/3/1 12/2/1 26/50/1
f 24/52/3 28/57/3 46/53/3
f 36/29/2 14/28/2 27/55/2
f 24/52/2 36/29/2 38/56/2
f 46/53/16 47/49/16 37/48/16
f 8/59/2 34/45/2 30/46/2
f 7/5/4 30/46/4 33/36/4
f 4/61/7 29/27/7 34/45/7
f 48/38/4 35/37/4 9/62/4
f 33/36/4 32/35/4 13/64/4
f 18/13/7 29/27/7 36/29/7
f 31/15/6 37/22/6 26/50/6
f 22/65/6 31/15/6 35/17/6
f 32/35/4 48/38/4 39/63/4
f 38/56/17 47/49/17 46/53/17
f 44/54/3 46/53/3 25/58/3
f 41/3/1 45/51/1 27/66/1
f 38/56/18 27/55/18 45/47/18
f 15/33/19 24/52/19 44/54/19
f 23/26/4 43/25/4 48/38/4
f 16/67/4 42/23/4 43/25/4
f 15/68/3 40/18/3 42/20/3
f 13/69/1 39/1/1 41/3/1
