# Blender v2.92.0 OBJ File: ''
# www.blender.org
mtllib block1.mtl
o Cube_Cube.002
v -1.000000 -1.000000 1.000000
v -1.000000 1.000000 1.000000
v -1.000000 -1.000000 -1.000000
v -1.000000 1.000000 -1.000000
v 1.000000 -1.000000 1.000000
v 1.000000 1.000000 1.000000
v 1.000000 -1.000000 -1.000000
v 1.000000 1.000000 -1.000000
v 2.702142 1.000000 -1.000000
v 2.702142 -1.000000 -1.000000
v 2.702142 -1.000000 1.000000
v 2.702142 1.000000 1.000000
v -1.000000 -1.000000 0.000000
v -1.000000 2.664999 0.000000
v 1.000000 -1.000000 0.000000
v 1.000000 2.664999 0.000000
v 2.702142 -1.000000 0.000000
v 2.702142 2.664999 0.000000
vt 0.375000 0.125000
vt 0.625000 0.250000
vt 0.375000 0.250000
vt 0.375000 0.500000
vt 0.625000 0.750000
vt 0.625000 0.625000
vt 0.625000 0.625000
vt 0.375000 1.000000
vt 0.375000 0.750000
vt 0.375000 0.625000
vt 0.125000 0.750000
vt 0.125000 0.625000
vt 0.875000 0.625000
vt 0.375000 0.625000
vt 0.625000 0.750000
vt 0.375000 0.750000
vt 0.625000 0.500000
vt 0.375000 0.500000
vt 0.625000 0.500000
vt 0.875000 0.500000
vt 0.125000 0.500000
vt 0.625000 0.000000
vt 0.375000 0.000000
vt 0.625000 0.125000
vt 0.625000 1.000000
vt 0.875000 0.750000
vn -1.0000 0.0000 0.0000
vn 0.0000 0.0000 -1.0000
vn 0.0000 0.5149 0.8573
vn 0.0000 0.0000 1.0000
vn 0.0000 -1.0000 0.0000
vn 1.0000 0.0000 0.0000
vn 0.0000 0.5149 -0.8573
usemtl None
s off
f 13/1/1 4/2/1 3/3/1
f 4/2/2 7/4/2 3/3/2
f 6/5/3 18/6/3 16/7/3
f 6/5/4 1/8/4 5/9/4
f 15/10/5 1/11/5 13/12/5
f 14/13/3 6/5/3 16/7/3
f 17/14/6 12/15/6 11/16/6
f 8/17/2 10/18/2 7/4/2
f 5/9/4 12/15/4 6/5/4
f 7/4/5 17/14/5 15/10/5
f 15/10/5 11/16/5 5/9/5
f 9/19/6 17/14/6 10/18/6
f 4/20/7 16/7/7 8/17/7
f 7/4/5 13/12/5 3/21/5
f 16/7/7 9/19/7 8/17/7
f 2/22/1 13/1/1 1/23/1
f 13/1/1 14/24/1 4/2/1
f 4/2/2 8/17/2 7/4/2
f 6/5/3 12/15/3 18/6/3
f 6/5/4 2/25/4 1/8/4
f 15/10/5 5/9/5 1/11/5
f 14/13/3 2/26/3 6/5/3
f 17/14/6 18/6/6 12/15/6
f 8/17/2 9/19/2 10/18/2
f 5/9/4 11/16/4 12/15/4
f 7/4/5 10/18/5 17/14/5
f 15/10/5 17/14/5 11/16/5
f 9/19/6 18/6/6 17/14/6
f 4/20/7 14/13/7 16/7/7
f 7/4/5 15/10/5 13/12/5
f 16/7/7 18/6/7 9/19/7
f 2/22/1 14/24/1 13/1/1
